<?xml version="1.0" encoding="UTF-8"?>
<svg xmlns="http://www.w3.org/2000/svg" xmlns:xlink="http://www.w3.org/1999/xlink" width="50px" height="50px" viewBox="0 0 50 50" version="1.1">
<g id="surface1">
<path style="fill:none;stroke-width:1.5;stroke-linecap:butt;stroke-linejoin:miter;stroke:rgb(10.980392%,15.294118%,29.803922%);stroke-opacity:1;stroke-miterlimit:4;" d="M 15 12 C 15 13.6575 13.6575 15 12 15 C 10.3425 15 9 13.6575 9 12 C 9 10.3425 10.3425 9 12 9 C 13.6575 9 15 10.3425 15 12 Z M 15 12 " transform="matrix(2.083333,0,0,2.083333,0,0)"/>
<path style="fill:none;stroke-width:1.5;stroke-linecap:round;stroke-linejoin:miter;stroke:rgb(10.980392%,15.294118%,29.803922%);stroke-opacity:1;stroke-miterlimit:4;" d="M 3.661875 10.63875 C 4.134375 10.936875 4.438125 11.44125 4.438125 12 C 4.438125 12.55875 4.134375 13.063125 3.661875 13.36125 C 3.339375 13.561875 3.133125 13.725 2.985 13.91625 C 2.6625 14.338125 2.52 14.86875 2.589375 15.395625 C 2.64 15.789375 2.874375 16.1925 3.339375 17.000625 C 3.80625 17.806875 4.03875 18.21 4.35375 18.451875 C 4.775625 18.77625 5.30625 18.91875 5.833125 18.849375 C 6.073125 18.8175 6.316875 18.718125 6.6525 18.541875 C 7.145625 18.279375 7.73625 18.27 8.218125 18.549375 C 8.701875 18.82875 8.98875 19.344375 9.009375 19.90125 C 9.0225 20.281875 9.06 20.5425 9.151875 20.765625 C 9.354375 21.255 9.744375 21.645 10.23375 21.8475 C 10.603125 21.999375 11.068125 21.999375 12 21.999375 C 12.931875 21.999375 13.396875 21.999375 13.76625 21.8475 C 14.255625 21.645 14.645625 21.255 14.848125 20.765625 C 14.94 20.5425 14.9775 20.281875 14.990625 19.90125 C 15.01125 19.344375 15.298125 18.82875 15.781875 18.549375 C 16.26375 18.27 16.854375 18.28125 17.3475 18.541875 C 17.683125 18.718125 17.926875 18.8175 18.166875 18.849375 C 18.69375 18.91875 19.224375 18.77625 19.64625 18.451875 C 19.96125 18.21 20.19375 17.806875 20.660625 17.000625 C 20.866875 16.640625 21.028125 16.36125 21.148125 16.126875 M 20.338125 13.36125 C 19.865625 13.063125 19.561875 12.55875 19.561875 12 C 19.561875 11.44125 19.865625 10.936875 20.338125 10.63875 C 20.660625 10.438125 20.866875 10.275 21.015 10.08375 C 21.3375 9.661875 21.48 9.13125 21.410625 8.604375 C 21.36 8.210625 21.125625 7.8075 20.660625 6.999375 C 20.19375 6.193125 19.96125 5.79 19.64625 5.548125 C 19.224375 5.22375 18.69375 5.08125 18.166875 5.150625 C 17.926875 5.1825 17.683125 5.281875 17.3475 5.458125 C 16.854375 5.71875 16.26375 5.73 15.781875 5.450625 C 15.298125 5.17125 15.01125 4.655625 14.990625 4.09875 C 14.9775 3.718125 14.94 3.4575 14.848125 3.234375 C 14.645625 2.745 14.255625 2.355 13.76625 2.1525 C 13.396875 2.000625 12.931875 2.000625 12 2.000625 C 11.068125 2.000625 10.603125 2.000625 10.23375 2.1525 C 9.744375 2.355 9.354375 2.745 9.151875 3.234375 C 9.06 3.4575 9.0225 3.718125 9.009375 4.09875 C 8.98875 4.655625 8.701875 5.17125 8.218125 5.450625 C 7.73625 5.73 7.145625 5.71875 6.6525 5.458125 C 6.316875 5.281875 6.073125 5.1825 5.833125 5.150625 C 5.30625 5.08125 4.775625 5.22375 4.35375 5.548125 C 4.03875 5.79 3.80625 6.193125 3.339375 6.999375 C 3.133125 7.359375 2.971875 7.63875 2.851875 7.873125 " transform="matrix(2.083333,0,0,2.083333,0,0)"/>
</g>
</svg>
