<?xml version="1.0" encoding="UTF-8"?>
<svg xmlns="http://www.w3.org/2000/svg" xmlns:xlink="http://www.w3.org/1999/xlink" width="50px" height="50px" viewBox="0 0 50 50" version="1.1">
<g id="surface1">
<path style="fill:none;stroke-width:2;stroke-linecap:round;stroke-linejoin:round;stroke:rgb(0%,0%,0%);stroke-opacity:1;stroke-miterlimit:4;" d="M 5.000625 15.999375 L 5.000625 20.000625 M 6 3.999375 L 6 8.000625 M 6.999375 18 L 3 18 M 8.000625 6 L 3.999375 6 M 12.999375 3.999375 L 14.7525 8.445 C 14.94 8.92125 15.035625 9.159375 15.178125 9.36 C 15.305625 9.538125 15.46125 9.69375 15.639375 9.82125 C 15.84 9.965625 16.08 10.059375 16.55625 10.246875 L 21 12 L 16.55625 13.753125 C 16.08 13.940625 15.84 14.034375 15.639375 14.17875 C 15.46125 14.30625 15.305625 14.461875 15.178125 14.64 C 15.035625 14.840625 14.94 15.07875 14.7525 15.555 L 12.999375 20.000625 L 11.248125 15.555 C 11.05875 15.07875 10.965 14.840625 10.820625 14.64 C 10.693125 14.461875 10.5375 14.30625 10.359375 14.17875 C 10.15875 14.034375 9.920625 13.940625 9.444375 13.753125 L 5.000625 12 L 9.444375 10.246875 C 9.920625 10.059375 10.15875 9.965625 10.359375 9.82125 C 10.5375 9.69375 10.693125 9.538125 10.820625 9.36 C 10.965 9.159375 11.05875 8.92125 11.248125 8.445 Z M 12.999375 3.999375 " transform="matrix(2.083333,0,0,2.083333,0,0)"/>
</g>
</svg>
