<?xml version="1.0" encoding="UTF-8"?>
<svg xmlns="http://www.w3.org/2000/svg" xmlns:xlink="http://www.w3.org/1999/xlink" width="50px" height="50px" viewBox="0 0 50 50" version="1.1">
<g id="surface1">
<path style=" stroke:none;fill-rule:nonzero;fill:rgb(36.078431%,56.862745%,23.137255%);fill-opacity:1;" d="M 49.445312 22.609375 C 45.859375 17.386719 38.445312 25.074219 24.917969 26.636719 C 19.90625 27.214844 15.394531 31.398438 9.574219 31 C 7.1875 30.835938 3.855469 23.972656 1.359375 25.066406 C 0.078125 25.628906 -0.511719 27.511719 0.808594 28.925781 L 15.457031 46.40625 C 15.457031 46.40625 16.203125 47.265625 18.710938 46.667969 C 19.328125 46.851562 28.621094 43.128906 33.992188 35.671875 C 35.277344 33.890625 36.8125 32.402344 38.398438 31.160156 C 43.554688 27.351562 49.15625 26.023438 49.15625 26.023438 C 49.875 25.429688 50.042969 24.800781 50.003906 24.253906 C 50.050781 23.34375 49.445312 22.609375 49.445312 22.609375 Z M 49.445312 22.609375 "/>
<path style=" stroke:none;fill-rule:nonzero;fill:rgb(65.490196%,82.352941%,54.509804%);fill-opacity:1;" d="M 15.9375 14.269531 C 10.683594 21.5625 1.484375 25.015625 1.484375 25.015625 C -0.234375 26.46875 1.214844 28.183594 1.214844 28.183594 L 15.714844 45.347656 C 15.714844 45.347656 16.4375 46.207031 18.878906 45.609375 C 18.878906 45.609375 28.082031 42.164062 33.335938 34.871094 C 38.75 27.359375 48.515625 24.984375 48.515625 24.984375 C 50.230469 23.53125 48.78125 21.816406 48.78125 21.816406 L 34.285156 4.652344 C 34.285156 4.652344 33.558594 3.792969 31.117188 4.386719 C 31.117188 4.386719 21.355469 6.753906 15.9375 14.269531 Z M 15.9375 14.269531 "/>
<path style=" stroke:none;fill-rule:nonzero;fill:rgb(46.666667%,69.803922%,33.333333%);fill-opacity:1;" d="M 38.195312 19.445312 C 38.195312 23.664062 34.773438 27.082031 30.554688 27.082031 C 26.335938 27.082031 22.917969 23.664062 22.917969 19.445312 C 22.917969 15.226562 26.335938 11.804688 30.554688 11.804688 C 34.773438 11.804688 38.195312 15.226562 38.195312 19.445312 Z M 38.195312 19.445312 "/>
<path style=" stroke:none;fill-rule:nonzero;fill:rgb(36.078431%,56.862745%,23.137255%);fill-opacity:1;" d="M 17.878906 44.347656 C 16.65625 44.347656 16.207031 43.890625 16.144531 43.820312 L 3.078125 28.566406 C 3.054688 28.539062 2.390625 27.777344 2.472656 26.816406 C 2.519531 26.230469 2.820312 25.710938 3.371094 25.265625 L 3.457031 25.214844 C 3.542969 25.179688 12.015625 21.695312 16.765625 15.402344 L 17.042969 15.609375 L 16.765625 15.402344 C 21.792969 8.742188 30.460938 5.882812 30.546875 5.855469 C 32.96875 5.289062 33.761719 6.097656 33.847656 6.191406 L 46.742188 21.527344 C 46.765625 21.554688 47.429688 22.316406 47.347656 23.28125 C 47.296875 23.863281 46.996094 24.382812 46.449219 24.828125 L 46.3125 24.894531 C 46.226562 24.917969 37.796875 27.011719 32.917969 33.480469 C 28.058594 39.925781 19.574219 44.09375 19.488281 44.132812 C 18.84375 44.289062 18.3125 44.347656 17.878906 44.347656 Z M 16.667969 43.363281 C 16.671875 43.363281 17.296875 43.941406 19.257812 43.484375 C 19.269531 43.472656 27.605469 39.371094 32.367188 33.0625 C 37.140625 26.738281 45.179688 24.476562 46.070312 24.242188 C 46.425781 23.9375 46.625 23.597656 46.65625 23.230469 C 46.714844 22.5625 46.222656 21.992188 46.21875 21.984375 L 33.320312 6.644531 C 33.320312 6.644531 32.695312 6.066406 30.734375 6.523438 C 30.675781 6.542969 22.210938 9.335938 17.320312 15.820312 C 12.648438 22.015625 4.492188 25.535156 3.769531 25.835938 C 3.398438 26.148438 3.195312 26.5 3.164062 26.871094 C 3.105469 27.535156 3.597656 28.105469 3.601562 28.109375 Z M 16.667969 43.363281 "/>
<path style=" stroke:none;fill-rule:nonzero;fill:rgb(100%,67.45098%,20%);fill-opacity:1;" d="M 29.550781 30.785156 L 29.542969 39.035156 L 30.230469 39.855469 C 31.578125 38.628906 32.871094 37.246094 33.988281 35.695312 C 35.113281 34.148438 36.433594 32.753906 37.917969 31.546875 L 37.246094 30.75 Z M 29.550781 30.785156 "/>
<path style=" stroke:none;fill-rule:nonzero;fill:rgb(100%,90.980392%,71.372549%);fill-opacity:1;" d="M 37.21875 30.71875 L 19.851562 10.144531 C 18.4375 11.308594 17.082031 12.660156 15.929688 14.261719 C 14.804688 15.828125 13.492188 17.203125 12.132812 18.417969 L 14.164062 20.820312 L 14.160156 20.820312 L 29.542969 39.035156 C 30.953125 37.785156 32.222656 36.386719 33.328125 34.867188 C 34.480469 33.265625 35.835938 31.914062 37.246094 30.75 Z M 37.21875 30.71875 "/>
<path style=" stroke:none;fill-rule:nonzero;fill:rgb(36.078431%,56.862745%,23.137255%);fill-opacity:1;" d="M 20.109375 31.328125 C 17.945312 28.765625 13.371094 32.921875 12.0625 31.375 C 11.433594 30.625 11.839844 29.65625 12.667969 28.957031 C 14.066406 27.773438 15.070312 28.460938 15.703125 27.929688 C 16.152344 27.550781 16.128906 27.085938 15.863281 26.769531 C 15.242188 26.039062 13.660156 26.417969 12.429688 27.128906 L 11.832031 26.421875 C 11.453125 26 10.808594 25.957031 10.375 26.320312 C 9.945312 26.6875 9.878906 27.328125 10.230469 27.773438 L 10.851562 28.507812 C 9.910156 29.753906 9.589844 31.410156 10.703125 32.726562 C 12.78125 35.183594 17.414062 31.097656 18.875 32.824219 C 19.378906 33.425781 19.238281 34.570312 18.171875 35.464844 C 16.578125 36.816406 15.132812 36.183594 14.484375 36.730469 C 14.167969 36.996094 14.113281 37.5 14.449219 37.902344 C 14.988281 38.539062 16.699219 38.402344 18.347656 37.375 C 18.347656 37.378906 18.347656 37.382812 18.347656 37.382812 L 19.023438 38.183594 C 19.261719 38.484375 19.644531 38.628906 20.019531 38.566406 C 20.398438 38.503906 20.710938 38.238281 20.835938 37.878906 C 20.960938 37.515625 20.882812 37.117188 20.625 36.832031 L 19.949219 36.03125 C 19.941406 36.023438 19.933594 36.019531 19.921875 36.007812 C 21.035156 34.652344 21.410156 32.859375 20.109375 31.328125 Z M 20.109375 31.328125 "/>
<path style=" stroke:none;fill-rule:nonzero;fill:rgb(88.235294%,90.980392%,92.941176%);fill-opacity:1;" d="M 45.078125 45.261719 C 45.089844 45.25 45.105469 45.242188 45.117188 45.230469 C 45.210938 45.136719 45.285156 45.027344 45.367188 44.925781 C 45.425781 44.851562 45.492188 44.785156 45.546875 44.710938 C 45.59375 44.640625 45.632812 44.570312 45.679688 44.5 C 47.652344 41.460938 46.359375 36.3125 42.457031 32.40625 C 38.550781 28.5 33.398438 27.207031 30.363281 29.183594 C 30.289062 29.226562 30.21875 29.265625 30.148438 29.316406 C 30.078125 29.371094 30.003906 29.433594 29.9375 29.492188 C 29.832031 29.578125 29.726562 29.648438 29.628906 29.746094 C 29.617188 29.757812 29.609375 29.769531 29.597656 29.785156 C 29.582031 29.796875 29.566406 29.808594 29.546875 29.824219 L 29.558594 29.832031 C 28.167969 31.308594 28.152344 33.589844 29.546875 34.988281 C 30.949219 36.386719 33.230469 36.367188 34.707031 34.980469 L 34.722656 34.996094 C 34.691406 35.023438 34.660156 35.042969 34.632812 35.070312 C 33.160156 36.539062 33.125 38.886719 34.550781 40.3125 C 35.976562 41.734375 38.324219 41.703125 39.792969 40.230469 C 39.820312 40.203125 39.839844 40.171875 39.867188 40.140625 L 39.882812 40.160156 C 38.492188 41.632812 38.476562 43.914062 39.875 45.316406 C 41.273438 46.710938 43.554688 46.695312 45.027344 45.308594 L 45.039062 45.316406 C 45.050781 45.296875 45.0625 45.277344 45.078125 45.261719 Z M 45.078125 45.261719 "/>
<path style=" stroke:none;fill-rule:nonzero;fill:rgb(80%,83.921569%,86.666667%);fill-opacity:1;" d="M 29.550781 35.042969 C 30.808594 36.300781 32.773438 36.402344 34.230469 35.40625 C 34.839844 34.363281 35.015625 33.375 35.015625 33.0625 C 31.953125 35.351562 29.214844 33.078125 28.601562 31.714844 C 28.347656 32.890625 28.65625 34.148438 29.550781 35.042969 Z M 39.6875 40.375 C 40.101562 39.792969 40.421875 39.230469 40.574219 38.851562 C 38.621094 40.640625 34.890625 39.332031 33.761719 36.492188 C 33.265625 37.8125 33.519531 39.332031 34.554688 40.367188 C 35.945312 41.757812 38.210938 41.75 39.6875 40.375 Z M 45.042969 45.371094 L 45.082031 45.320312 C 45.097656 45.308594 45.109375 45.300781 45.121094 45.289062 C 45.214844 45.195312 45.289062 45.085938 45.371094 44.984375 C 45.433594 44.910156 45.496094 44.839844 45.550781 44.765625 C 45.601562 44.699219 45.640625 44.625 45.683594 44.554688 C 45.773438 44.417969 45.824219 44.253906 45.898438 44.105469 C 42.390625 45.675781 39.769531 43.011719 39.035156 41.683594 C 38.625 42.957031 38.890625 44.382812 39.878906 45.371094 C 41.277344 46.769531 43.558594 46.753906 45.035156 45.363281 Z M 45.042969 45.371094 "/>
<path style=" stroke:none;fill-rule:nonzero;fill:rgb(88.235294%,90.980392%,92.941176%);fill-opacity:1;" d="M 19.382812 17.359375 L 19.421875 17.328125 C 19.519531 17.234375 19.589844 17.125 19.671875 17.023438 C 19.730469 16.949219 19.796875 16.882812 19.851562 16.808594 C 19.898438 16.738281 19.941406 16.667969 19.984375 16.597656 C 21.957031 13.558594 20.664062 8.40625 16.757812 4.503906 C 12.855469 0.597656 7.703125 -0.695312 4.667969 1.277344 C 4.597656 1.320312 4.523438 1.359375 4.453125 1.410156 C 4.378906 1.464844 4.3125 1.527344 4.238281 1.585938 C 4.136719 1.671875 4.027344 1.742188 3.933594 1.839844 C 3.921875 1.851562 3.914062 1.867188 3.902344 1.878906 C 3.886719 1.890625 3.867188 1.902344 3.851562 1.917969 L 3.859375 1.925781 C 2.472656 3.402344 2.453125 5.683594 3.851562 7.082031 C 5.25 8.480469 7.535156 8.464844 9.007812 7.074219 L 9.023438 7.089844 C 8.996094 7.117188 8.960938 7.136719 8.933594 7.164062 C 7.464844 8.632812 7.429688 10.980469 8.855469 12.40625 C 10.277344 13.832031 12.625 13.796875 14.097656 12.328125 C 14.125 12.296875 14.144531 12.265625 14.171875 12.238281 L 14.1875 12.253906 C 12.796875 13.726562 12.777344 16.007812 14.179688 17.410156 C 15.578125 18.808594 17.859375 18.789062 19.332031 17.398438 L 19.339844 17.410156 C 19.355469 17.394531 19.367188 17.375 19.382812 17.359375 Z M 19.382812 17.359375 "/>
<path style=" stroke:none;fill-rule:nonzero;fill:rgb(80%,83.921569%,86.666667%);fill-opacity:1;" d="M 3.851562 7.082031 C 5.109375 8.339844 7.074219 8.445312 8.53125 7.445312 C 9.140625 6.402344 9.316406 5.414062 9.316406 5.105469 C 6.25 7.390625 3.515625 5.113281 2.902344 3.753906 C 2.648438 4.929688 2.957031 6.1875 3.851562 7.082031 Z M 13.992188 12.414062 C 14.402344 11.832031 14.726562 11.273438 14.875 10.890625 C 12.921875 12.679688 9.191406 11.371094 8.0625 8.53125 C 7.5625 9.851562 7.816406 11.371094 8.851562 12.40625 C 10.246094 13.800781 12.515625 13.789062 13.992188 12.414062 Z M 19.339844 17.410156 C 19.355469 17.394531 19.367188 17.375 19.382812 17.359375 L 19.421875 17.328125 C 19.515625 17.234375 19.589844 17.125 19.671875 17.023438 C 19.730469 16.953125 19.792969 16.882812 19.847656 16.808594 C 19.898438 16.738281 19.9375 16.667969 19.984375 16.597656 C 20.074219 16.457031 20.121094 16.292969 20.199219 16.144531 C 16.6875 17.714844 14.066406 15.054688 13.332031 13.722656 C 12.921875 14.996094 13.1875 16.421875 14.179688 17.414062 C 15.578125 18.8125 17.855469 18.792969 19.332031 17.402344 Z M 19.339844 17.410156 "/>
</g>
</svg>
